<svg xmlns="http://www.w3.org/2000/svg" viewBox="0 0 69.24 65.21"><defs><style>.cls-1{fill:#fff;}</style></defs><title>Instituciones</title><g id="Capa_2" data-name="Capa 2"><g id="Capa_1-2" data-name="Capa 1"><path class="cls-1" d="M68.1,42.29H61.45V32.2c0-.08,0-.15,0-.22a2.29,2.29,0,0,0-1-2.17L36.09,14.22,36,14.17V10.64H46.72a1.15,1.15,0,0,0,1.14-1.15V1.15A1.14,1.14,0,0,0,46.72,0H34.85A1.15,1.15,0,0,0,33.7,1.15v13l-.07,0L8.87,29.8a2.28,2.28,0,0,0-1,2.19,1.49,1.49,0,0,0,0,.21V42.29H1.15A1.14,1.14,0,0,0,0,43.43V64.07a1.14,1.14,0,0,0,1.15,1.14H68.1a1.14,1.14,0,0,0,1.14-1.14V43.43A1.14,1.14,0,0,0,68.1,42.29ZM45.57,3.62V7H36V3.62ZM34.84,18.87l17.21,11H17.3ZM2.29,44.58H7.8V60.63H2.29ZM28,60.63H20.64V46.41a3.67,3.67,0,0,1,7.33,0Zm19.72,0H40.35V46.41a3.67,3.67,0,0,1,7.34,0Zm9.17,0H50V46.41a6,6,0,0,0-11.92,0V60.63H30.27V46.41a6,6,0,0,0-11.93,0V60.63h-6V34.49H56.86Zm10.09,0h-5.5V44.58H67Z"/></g></g></svg>