<svg xmlns="http://www.w3.org/2000/svg" viewBox="0 0 193.68 40.37"><defs><style>.cls-1,.cls-2{fill:#fff;}.cls-2{font-size:38.08px;font-family:MuseoSans-900, Museo Sans;font-weight:900;}</style></defs><title>Recurso 1</title><g id="Capa_2" data-name="Capa 2"><g id="BACKGROUNDS_COLORS" data-name="BACKGROUNDS COLORS"><path class="cls-1" d="M55,26.62l-5.76-12h0l-.61,10.18c-.07,1.15.79,1.4,1.81,1.44v.43H45.7v-.43c1.65,0,1.85-.36,2-2.42L48.21,15c.09-1.49,0-1.9-1.36-2v-.41h3.41L55.71,24l5.43-11.4h3.32V13c-1.11.09-1.54.11-1.49.88l.72,10.24c.14,2.08.32,2.08,2,2.08v.43H59.85v-.43c1.06,0,2.1-.29,2-1.49L61.2,14.57h0L55.53,26.62Z"/><path class="cls-1" d="M72.64,26.62H67.15v-.43c1.4-.07,1.69-.43,1.69-1.94V14.62c0-1.22-.43-1.56-1.69-1.63v-.43h5.49V13c-1.42,0-1.92.32-1.92,1.83v9.59c0,1.33.36,1.78,1.92,1.78Z"/><path class="cls-1" d="M89,26.78,77.3,14.53v9.7c0,1.62.36,2,2.28,2v.43H74.34v-.43h.09c1.4,0,1.85-.47,1.85-1.51V13.56a3.24,3.24,0,0,0-1.9-.57v-.43h3.55l10.65,11.1v-9c0-1.38-.41-1.62-2.22-1.67v-.43h5.29V13c-1.69,0-2.06.29-2.06,1.18V26.78Z"/><path class="cls-1" d="M98.54,26.62H93.05v-.43c1.4-.07,1.7-.43,1.7-1.94V14.62c0-1.22-.43-1.56-1.7-1.63v-.43h5.49V13c-1.42,0-1.92.32-1.92,1.83v9.59c0,1.33.36,1.78,1.92,1.78Z"/><path class="cls-1" d="M101,23.19a3.92,3.92,0,0,0,3.82,3.18c1.52,0,3.12-.88,3.12-2.66,0-3.26-7.25-4.25-7.25-8.21,0-1.88,1.72-3.28,4-3.28,1.9,0,2.28.57,3.08.57a.42.42,0,0,0,.4-.23h.36l.39,2.87h-.39a4,4,0,0,0-3.64-2.67,2.24,2.24,0,0,0-2.53,2.13c0,3.21,7.26,4.07,7.26,8.23,0,2.21-2,3.86-4.61,3.86a18.17,18.17,0,0,1-3.14-.61.56.56,0,0,0-.46.25H101l-.48-3.43Z"/><path class="cls-1" d="M119.23,24.54c0,1.22.4,1.65,1.78,1.65h.84v.43h-7.12v-.43h.83c1.38,0,1.79-.43,1.79-1.65V13.38h-3.93c-.91,0-1.32.52-1.65,2.5h-.41l.36-3.66h.43a.32.32,0,0,0,.25.27,1.29,1.29,0,0,0,.45.07h10.87c.32,0,.66-.07.7-.34h.43l.37,3.66h-.41c-.34-2-.75-2.5-1.65-2.5h-3.93Z"/><path class="cls-1" d="M136.43,21.54H136c-.19-1.61-.61-1.79-1.54-1.79h-3.82v4.81c0,1,.38,1.25,1.22,1.25h3.48c1.58,0,2.06-.61,2.62-2.56h.41L138,26.62H126v-.43h.64c1.81,0,2.12-.5,2.12-1.85V14.8c0-1.27-.29-1.81-1.81-1.81h-.49v-.43h10.85l.18,3.14h-.41c-.29-1.92-.86-2.32-1.67-2.32h-4.77v5.56h4c.82,0,1.2-.39,1.32-1.7h.43Z"/><path class="cls-1" d="M143.86,24.5c0,1.35.54,1.69,1.81,1.69h.52v.43h-6.4v-.43h.39c1.33,0,1.81-.36,1.81-1.87V14.8c0-1.4-.39-1.81-1.7-1.81h-.5v-.43c.55,0,1.92-.09,2.85-.13s1.38-.07,2.85-.07c4.18,0,6.06,1.72,6.06,4a3.86,3.86,0,0,1-3,3.66,28.59,28.59,0,0,1,2.58,2.35l1.78,1.79a6.83,6.83,0,0,0,4.46,2.28v.41c-4,.18-5-.68-7-2.69l-1.49-1.49a16,16,0,0,0-2.33-2c-.56,0-.93,0-1.54,0s-.79,0-1.15,0Zm0-4.25a9.43,9.43,0,0,0,1.4,0c2.51,0,4.16-1.06,4.16-3.77,0-2.1-.95-3.73-4.43-3.73a10.48,10.48,0,0,0-1.13,0Z"/><path class="cls-1" d="M164,26.62h-5.49v-.43c1.4-.07,1.69-.43,1.69-1.94V14.62c0-1.22-.43-1.56-1.69-1.63v-.43H164V13c-1.42,0-1.92.32-1.92,1.83v9.59c0,1.33.36,1.78,1.92,1.78Z"/><path class="cls-1" d="M174.38,27c-4.44,0-8.17-2.84-8.17-7.07,0-4.5,3.46-7.69,8.28-7.69,4.27,0,7.93,2.92,7.93,7A7.78,7.78,0,0,1,174.38,27Zm-.48-14.19c-4,0-5.56,3.7-5.56,6.42,0,4.22,2.87,7.21,6.51,7.21s5.45-3.26,5.45-6.47C180.3,15.75,177.63,12.79,173.9,12.79Z"/><path class="cls-1" d="M185,23.19a3.92,3.92,0,0,0,3.82,3.18c1.52,0,3.12-.88,3.12-2.66,0-3.26-7.25-4.25-7.25-8.21,0-1.88,1.71-3.28,4-3.28,1.9,0,2.28.57,3.07.57a.43.43,0,0,0,.41-.23h.36l.39,2.87h-.39A4,4,0,0,0,189,12.76a2.24,2.24,0,0,0-2.53,2.13c0,3.21,7.26,4.07,7.26,8.23,0,2.21-2,3.86-4.61,3.86a18.56,18.56,0,0,1-3.15-.61.56.56,0,0,0-.45.25h-.38l-.48-3.43Z"/><text class="cls-2" transform="translate(0 32.37)">M</text></g></g></svg>