<svg xmlns="http://www.w3.org/2000/svg" viewBox="0 0 887.41 149.94"><defs><style>.cls-1{fill:#fff;}</style></defs><title>Recurso 18</title><g id="Capa_2" data-name="Capa 2"><g id="Capa_1-2" data-name="Capa 1"><path class="cls-1" d="M30.38,83.81a34.82,34.82,0,0,1-13.82,3.25C5.26,87.06,0,78.34,0,70.81c0-7.73,5.42-17.43,18-17.43,5.52,0,9.18,1.75,10.26,1.75a1.8,1.8,0,0,0,1.19-.36h.72v8.36h-1c-1.39-6.45-5.78-8.46-10.57-8.46C9.49,54.67,4.85,62.2,4.85,70.5c0,10.58,7.42,15.27,13.36,15.27a17.45,17.45,0,0,0,7.89-2v-6.5c0-2.94-1-3.92-4.13-3.92H20.06v-.93H34v.93c-2.58.16-3.61,1-3.61,3.25Z"/><path class="cls-1" d="M52.46,87.06c-10.11,0-18.62-6.5-18.62-16.14,0-10.27,7.89-17.54,18.88-17.54,9.75,0,18.1,6.65,18.1,15.94,0,10.42-8.35,17.74-18.36,17.74M51.38,54.67c-9.08,0-12.69,8.46-12.69,14.65,0,9.64,6.55,16.45,14.85,16.45S66,78.34,66,71c0-9.59-6.08-16.35-14.59-16.35"/><path class="cls-1" d="M75.68,59.62c0-2.94-.37-4.48-4-4.48H69.9v-1c1.44-.06,5-.26,6.5-.31,2.83-.11,6.75-.16,7.73-.16,4.54,0,8.51.67,10.37,2a6.55,6.55,0,0,1,3.15,5.73c0,2.94-2.43,5.67-5.88,6.29v.1c4.85,1.45,7.68,4.59,7.68,8.62s-2.83,9.8-11.14,9.8H69.43v-1h1.19c4.23,0,5.06-1,5.06-4.23ZM80,67.57h5.62c5,0,7.42-2,7.42-6,0-3.61-2.16-6.91-8.51-6.91-1.13,0-3.25.1-4.53.16Zm0,12c0,3.92,1.54,5.31,5.88,5.31,6.8,0,8.76-4.23,8.76-8.25s-3-8-9.07-8H80Z"/><path class="cls-1" d="M112.92,86.24H100.39v-1c3.19-.15,3.86-1,3.86-4.43v-22c0-2.78-1-3.56-3.86-3.71v-1h12.53v1c-3.25,0-4.39.72-4.39,4.18V81.19c0,3,.83,4.07,4.39,4.07Z"/><path class="cls-1" d="M138,74.63h-1c-.41-3.66-1.39-4.08-3.51-4.08h-8.71v11c0,2.37.87,2.84,2.78,2.84h8c3.61,0,4.69-1.39,6-5.83h.93l-.83,7.68H114.25v-1h1.44c4.12,0,4.85-1.13,4.85-4.22V59.26c0-2.89-.67-4.13-4.13-4.13h-1.13v-1H140l.41,7.17h-.92c-.67-4.38-2-5.31-3.82-5.31H124.82V68.7h9.23c1.86,0,2.73-.88,3-3.87h1Z"/><path class="cls-1" d="M150.87,81.39c0,3.09,1.24,3.86,4.12,3.86h1.19v1H141.59v-1h.87c3,0,4.13-.82,4.13-4.28V59.26c0-3.2-.88-4.13-3.87-4.13h-1.13v-1c1.23,0,4.38-.2,6.49-.31s3.15-.15,6.5-.15c9.54,0,13.82,3.92,13.82,9.18,0,3.87-2.63,7.12-6.86,8.36a60.91,60.91,0,0,1,5.88,5.36l4.08,4.08c3,3,6.19,4.94,10.16,5.2v.93c-9,.41-11.35-1.55-15.94-6.13l-3.4-3.41A38.83,38.83,0,0,0,157,72.67c-1.29,0-2.12.1-3.51.1-1.14,0-1.81,0-2.63-.1Zm0-9.7a23.05,23.05,0,0,0,3.2.1c5.72,0,9.49-2.42,9.49-8.61,0-4.8-2.17-8.51-10.11-8.51a21.83,21.83,0,0,0-2.58.1Z"/><path class="cls-1" d="M210.68,87.12,184,59.17V81.29c0,3.72.82,4.49,5.21,4.49v1h-12v-1h.21c3.2,0,4.23-1.08,4.23-3.46V57a7.54,7.54,0,0,0-4.34-1.29v-1h8.1L209.7,80V59.48c0-3.15-.93-3.72-5-3.82v-1h12.07v1c-3.87,0-4.7.67-4.7,2.68V87.12Z"/><path class="cls-1" d="M234.14,87.06c-10.11,0-18.62-6.5-18.62-16.14,0-10.27,7.89-17.54,18.87-17.54,9.75,0,18.11,6.65,18.11,15.94,0,10.42-8.36,17.74-18.36,17.74m-1.09-32.39c-9.07,0-12.68,8.46-12.68,14.65,0,9.64,6.55,16.45,14.85,16.45S247.65,78.34,247.65,71c0-9.59-6.09-16.35-14.6-16.35"/><path class="cls-1" d="M269.93,59.31c0-3.35-.88-4.17-3.92-4.17h-1v-1c1.9-.11,4.43-.21,7.27-.31s6-.16,8.66-.16c13.62,0,19.65,6.91,19.65,15.42,0,7.79-6,17.13-19.08,17.13H265v-1h.87c2.79,0,4.08-.78,4.08-3.77Zm4.28,23.11c0,2.12.15,2.84,4.23,2.84,6.91,0,9.8-1,13-4.18a15.91,15.91,0,0,0,4.28-11.14,15.53,15.53,0,0,0-4.12-11.09c-2.37-2.37-6-4.18-13.26-4.18-2.11,0-3.5.16-4.12.21Z"/><path class="cls-1" d="M323.21,74.63h-1c-.41-3.66-1.39-4.08-3.51-4.08H310v11c0,2.37.87,2.84,2.78,2.84h7.95c3.61,0,4.69-1.39,6-5.83h.93l-.83,7.68H299.44v-1h1.44c4.12,0,4.85-1.13,4.85-4.22V59.26c0-2.89-.67-4.13-4.13-4.13h-1.13v-1h24.75l.41,7.17h-.92c-.67-4.38-2-5.31-3.82-5.31H310V68.7h9.23c1.86,0,2.73-.88,3-3.87h1Z"/><path class="cls-1" d="M588.63,73.68h-1c-.42-3.66-1.39-4.08-3.51-4.08h-8.71v11c0,2.37.87,2.84,2.78,2.84h7.94c3.61,0,4.7-1.39,6-5.83h.92l-.82,7.69H564.85v-1h1.45c4.12,0,4.84-1.13,4.84-4.22V58.31c0-2.89-.67-4.12-4.12-4.12h-1.14v-1h24.76l.41,7.17h-.93c-.67-4.38-2-5.31-3.81-5.31H575.43V67.75h9.23c1.85,0,2.73-.88,3-3.87h1Z"/><path class="cls-1" d="M617.88,85.28H594.82v-1h1.7c2.38,0,3.25-.77,3.25-3.4V58.05c0-2.74-.82-3.87-4.07-3.87H595v-1h15.21v1h-1.9c-3.36,0-4.24.36-4.24,3.56V81.52c0,1.39.57,1.9,2.07,1.9h7.58c3,0,4-1.18,7.22-5.67h.93Z"/><path class="cls-1" d="M636.76,77.44a8.94,8.94,0,0,0,8.71,7.27c3.46,0,7.12-2,7.12-6.08,0-7.43-16.55-9.7-16.55-18.72,0-4.29,3.92-7.48,9.18-7.48,4.33,0,5.21,1.29,7,1.29a1,1,0,0,0,.93-.52H654l.88,6.55H654a9.11,9.11,0,0,0-8.3-6.09c-3.4,0-5.78,2-5.78,4.85,0,7.32,16.56,9.29,16.56,18.78,0,5-4.49,8.81-10.52,8.81-2.84,0-6.45-1.39-7.17-1.39a1.24,1.24,0,0,0-1,.57h-.88l-1.08-7.84Z"/><path class="cls-1" d="M668.38,71.05l-3,8.09a14.17,14.17,0,0,0-1,3.25c0,1.4,1.35,1.91,4.18,1.91h.83v1H657.44v-1c3.36,0,3.92-.62,5.57-5.1l9.39-25.64-.46-1.13h4.48L687.2,81.05c1,2.74,2.12,3.25,4.7,3.25v1H677.71v-1h1.34c2.94,0,4-.31,4-1.75a5.68,5.68,0,0,0-.57-2.12l-3.46-9.38Zm5.26-14.29-4.39,12h8.93Z"/><path class="cls-1" d="M714.7,85.28H691.64v-1h1.71c2.37,0,3.25-.77,3.25-3.4V58.05c0-2.74-.83-3.87-4.08-3.87h-.72v-1H707v1h-1.9c-3.36,0-4.24.36-4.24,3.56V81.52c0,1.39.57,1.9,2.07,1.9h7.58c3,0,4-1.18,7.22-5.67h.93Z"/><path class="cls-1" d="M726.41,86.11l-11.19-27.9c-1.29-3.25-1.91-4-5.06-4v-1h14.18v1c-4.74.1-5.87,1.18-4.89,3.55l9.28,23.11,8.15-21.3a9.92,9.92,0,0,0,.87-3.2c0-1.55-1.28-2.16-4.79-2.16v-1h12v1c-2.69,0-4.08,1.23-5.32,4.43L729,86.11Z"/><path class="cls-1" d="M749.88,71.05l-3,8.09a14.6,14.6,0,0,0-1,3.25c0,1.4,1.34,1.91,4.17,1.91h.83v1H738.94v-1c3.36,0,3.92-.62,5.57-5.1l9.39-25.64-.46-1.13h4.48L768.7,81.05c1,2.74,2.12,3.25,4.7,3.25v1H759.21v-1h1.34c2.94,0,4-.31,4-1.75a5.68,5.68,0,0,0-.57-2.12l-3.46-9.38Zm5.26-14.29-4.39,12h8.93Z"/><path class="cls-1" d="M777.84,58.35c0-3.35-.88-4.17-3.92-4.17h-1v-1c1.9-.11,4.43-.21,7.27-.31s6-.16,8.66-.16c13.62,0,19.65,6.91,19.65,15.42,0,7.79-6,17.13-19.08,17.13h-16.5v-1h.87c2.79,0,4.08-.78,4.08-3.77Zm4.28,23.11c0,2.12.15,2.84,4.23,2.84,6.91,0,9.8-1,13-4.18A15.91,15.91,0,0,0,803.62,69a15.53,15.53,0,0,0-4.12-11.09c-2.37-2.37-6-4.18-13.26-4.18-2.11,0-3.5.16-4.12.21Z"/><path class="cls-1" d="M829.37,86.11c-10.11,0-18.62-6.5-18.62-16.14,0-10.27,7.89-17.54,18.88-17.54,9.75,0,18.1,6.65,18.1,15.94,0,10.42-8.35,17.74-18.36,17.74m-1.08-32.39c-9.08,0-12.69,8.46-12.69,14.65,0,9.64,6.55,16.45,14.85,16.45s12.43-7.43,12.43-14.75c0-9.59-6.08-16.35-14.59-16.35"/><path class="cls-1" d="M856.62,80.44c0,3.09,1.24,3.86,4.12,3.86h1.19v1h-14.6v-1h.88c3,0,4.13-.82,4.13-4.28V58.31c0-3.2-.88-4.13-3.87-4.13h-1.14v-1c1.24,0,4.39-.2,6.5-.31s3.15-.15,6.5-.15c9.54,0,13.82,3.92,13.82,9.18,0,3.87-2.63,7.12-6.86,8.36a60.91,60.91,0,0,1,5.88,5.36l4.08,4.07c3,3.05,6.19,5,10.16,5.21v.93c-9,.41-11.35-1.55-15.94-6.14l-3.4-3.4a38.83,38.83,0,0,0-5.31-4.59c-1.29,0-2.12.1-3.51.1-1.14,0-1.81,0-2.63-.1Zm0-9.7a23.05,23.05,0,0,0,3.2.1c5.72,0,9.49-2.42,9.49-8.61,0-4.8-2.17-8.51-10.11-8.51a21.83,21.83,0,0,0-2.58.1Z"/><polygon class="cls-1" points="449.33 0 451.4 4.18 456.01 4.85 452.67 8.1 453.46 12.69 449.33 10.52 445.21 12.69 446 8.1 442.66 4.85 447.27 4.18 449.33 0"/><polygon class="cls-1" points="479.65 7.73 481.71 11.91 486.32 12.58 482.99 15.83 483.77 20.42 479.65 18.25 475.52 20.42 476.31 15.83 472.97 12.58 477.59 11.91 479.65 7.73"/><polygon class="cls-1" points="502.9 26.55 504.96 30.73 509.57 31.4 506.24 34.65 507.02 39.24 502.9 37.07 498.77 39.24 499.56 34.65 496.22 31.4 500.83 30.73 502.9 26.55"/><polygon class="cls-1" points="516.18 53.49 518.24 57.67 522.85 58.34 519.51 61.59 520.3 66.18 516.18 64.01 512.05 66.18 512.84 61.59 509.5 58.34 514.12 57.67 516.18 53.49"/><polygon class="cls-1" points="516.69 84.75 518.75 88.93 523.36 89.6 520.02 92.85 520.81 97.44 516.69 95.27 512.56 97.44 513.35 92.85 510.01 89.6 514.63 88.93 516.69 84.75"/><polygon class="cls-1" points="502.92 111.81 504.98 115.99 509.59 116.66 506.25 119.91 507.04 124.5 502.92 122.33 498.79 124.5 499.58 119.91 496.24 116.66 500.86 115.99 502.92 111.81"/><polygon class="cls-1" points="479.8 130.64 481.86 134.82 486.47 135.49 483.13 138.74 483.92 143.33 479.8 141.16 475.67 143.33 476.46 138.74 473.12 135.49 477.73 134.82 479.8 130.64"/><polygon class="cls-1" points="449.32 137.25 451.38 141.43 456 142.1 452.66 145.35 453.45 149.94 449.32 147.77 445.2 149.94 445.98 145.35 442.65 142.1 447.26 141.43 449.32 137.25"/><polygon class="cls-1" points="419.52 130.66 421.58 134.84 426.2 135.51 422.86 138.76 423.65 143.35 419.52 141.18 415.4 143.35 416.19 138.76 412.85 135.51 417.46 134.84 419.52 130.66"/><polygon class="cls-1" points="396.38 111.84 398.45 116.02 403.06 116.69 399.72 119.94 400.51 124.53 396.38 122.36 392.26 124.53 393.05 119.94 389.71 116.69 394.32 116.02 396.38 111.84"/><polygon class="cls-1" points="382.6 84.95 384.67 89.13 389.28 89.8 385.94 93.05 386.73 97.64 382.6 95.47 378.48 97.64 379.27 93.05 375.93 89.8 380.54 89.13 382.6 84.95"/><polygon class="cls-1" points="382.6 53.49 384.67 57.67 389.28 58.34 385.94 61.59 386.73 66.18 382.6 64.01 378.48 66.18 379.27 61.59 375.93 58.34 380.54 57.67 382.6 53.49"/><polygon class="cls-1" points="395.68 26.58 397.75 30.76 402.36 31.43 399.02 34.68 399.81 39.27 395.68 37.1 391.56 39.27 392.35 34.68 389.01 31.43 393.62 30.76 395.68 26.58"/><polygon class="cls-1" points="419.48 7.75 421.55 11.93 426.16 12.6 422.82 15.85 423.61 20.44 419.48 18.27 415.36 20.44 416.15 15.85 412.81 12.6 417.42 11.93 419.48 7.75"/><path class="cls-1" d="M484.68,85.81h-.07a.57.57,0,1,0,0,1.14h.14a.57.57,0,0,0,0-1.14h-.07"/><path class="cls-1" d="M491,77.79a3.92,3.92,0,0,0-1.4.52,1.93,1.93,0,0,1-.8.33,2.05,2.05,0,0,0,.2-1.1c-.1-1-.1-2.76-.1-2.76s-.34,1-.84,1.29-1.47.6-1.65,1-.87.35-1.14,1.39a4.19,4.19,0,0,1-.42,1.3l-.22.35a24.07,24.07,0,0,0,.57-4.58c0-.25,0-.48,0-.72a6.12,6.12,0,0,0,.6-.57c.22-.37,2.89-1.28,3.26-2s.57-1.19.75-1.49a5.43,5.43,0,0,0,.47-2,15.36,15.36,0,0,0-.35-2.64,3.64,3.64,0,0,0-1.09.85,1.42,1.42,0,0,1-.3.3,2.18,2.18,0,0,0-.12-.75c-.38-.92-.95-2.14-.95-2.14s-.5.78-.77,1.25c-.45.9-.9,1-1,1.32s-.15.31-.35,1c-.07.25-.56.72-.59.86a41.17,41.17,0,0,0-.74-4.2c.13-.4.27-1.28.63-1.58a2.07,2.07,0,0,0,.6-1.74,6.75,6.75,0,0,0-.25-1.64c-.07-.42-1.39-2.24-1.29-2.76,0,0-.65,1.47-.9,2a10.61,10.61,0,0,0-2.19-1.68c-.33-.56-.66-1.14-1-1.71,0-.16.05-.52.1-.9a4.09,4.09,0,0,0,.1-1.82c-.17-.42-.52-.77-.69-1.29a2.6,2.6,0,0,0-.7-1.3c-.43-.45-1.05-1-1.05-1s-.17.77-.33,1.39a2.29,2.29,0,0,0-.44-.17c-.1,0-.32-.16-.56-.29-.3-.4-.59-.79-.87-1.13a.55.55,0,0,0,.26-.47.57.57,0,1,0-.57.57.55.55,0,0,0,.31-.1l.64,1c-.28-.15-.55-.31-.68-.39s-.35,1.56.17,2.51l-.24-.07a6.25,6.25,0,0,0-2-.17c.25,0,.87.67.94,1a2.94,2.94,0,0,0,1.05,1.29,6.14,6.14,0,0,1,1.29,1,4.16,4.16,0,0,0,2.2.43,1.32,1.32,0,0,0,.76.19c.32.55.64,1.11.95,1.67a6.19,6.19,0,0,0-.2,1.49h0c-.42-.08-1.89-.43-1.89-.43A5.06,5.06,0,0,0,479,60.7a.58.58,0,0,0-.17.29.73.73,0,0,0,.13.53,1.83,1.83,0,0,0,.81.68l-7.11,5a97.9,97.9,0,0,0-.7-18.34c.86-.33.63-.72.63-.72l-.34-.84a.77.77,0,0,0,.28.07.57.57,0,0,0,.41-.17.62.62,0,0,0-.1-.87,1.62,1.62,0,0,0-.55-.4l1-.14.58-2.46h0l-2.39.81-.05,1a1.55,1.55,0,0,0-.43-.5.58.58,0,1,0-.78.85,1.87,1.87,0,0,0,.87.46l0,.07L459.21,59.2,451.29,46c.49-3.22-1.23-8.09-1.3-8.28a4.89,4.89,0,0,0,.13-1.32,1.14,1.14,0,0,0,.76-.75l0,0h0a12.08,12.08,0,0,0-.91-1,2.07,2.07,0,0,0,.42.05h.06a.59.59,0,1,0,0-1.16h0a1.86,1.86,0,0,0-.67.08l.65-.79-1.22-2.21h0L448,32.72l.65.79a2.05,2.05,0,0,0-.65-.08.75.75,0,0,0-.51.2.52.52,0,0,0-.16.38.55.55,0,0,0,.16.38.7.7,0,0,0,.5.2h.05l.35,0c-.2.18-.46.48-.64.68a1,1,0,0,0-.17.21l0,0,0,.08s0,0,0,.06a1.18,1.18,0,0,0,.36.44c-.9,1.68-3.14,6.57-1.85,11.66L439.24,59.2l-12-13.2a1.87,1.87,0,0,0,1-.48.74.74,0,0,0,.24-.48.58.58,0,0,0-.14-.39.53.53,0,0,0-.38-.18.75.75,0,0,0-.49.19,1.72,1.72,0,0,0-.45.51l-.05-1-2.38-.81h0l.58,2.46,1,.14a1.89,1.89,0,0,0-.54.39.72.72,0,0,0-.24.48.58.58,0,0,0,.14.4.56.56,0,0,0,.37.17h0a.68.68,0,0,0,.28-.07l-.34.84s-.23.39.64.72a97,97,0,0,0-.7,18.34l-7.12-5a1.81,1.81,0,0,0,.82-.68.73.73,0,0,0,.13-.47.52.52,0,0,0-.16-.34,5.06,5.06,0,0,0,.76-2.18s-1.47.35-1.89.43h0a5.73,5.73,0,0,0-.2-1.49c.31-.56.63-1.12.95-1.67a1.36,1.36,0,0,0,.77-.19,4.1,4.1,0,0,0,2.19-.43,6.69,6.69,0,0,1,1.29-1,2.94,2.94,0,0,0,1.05-1.29c.07-.35.7-1,.95-1a6.31,6.31,0,0,0-2,.17l-.24.07c.52-1,.39-2.66.17-2.51s-.4.24-.68.39l.64-1a.57.57,0,1,0,.31-1,.56.56,0,0,0-.31,1c-.27.34-.56.73-.86,1.13-.25.13-.47.25-.57.29a2.29,2.29,0,0,0-.44.17C421.2,50,421,49.2,421,49.2s-.62.59-1,1a2.58,2.58,0,0,0-.69,1.3c-.18.52-.52.87-.7,1.29a4.24,4.24,0,0,0,.1,1.82c.05.38.09.74.11.9-.35.57-.68,1.15-1,1.71a10.88,10.88,0,0,0-2.19,1.68l-.89-2c.1.52-1.22,2.34-1.3,2.76a6.75,6.75,0,0,0-.25,1.64,2.07,2.07,0,0,0,.6,1.74c.36.3.5,1.18.63,1.58-.29,1.26-.54,2.66-.74,4.2a3.51,3.51,0,0,0-.14-.57c-.2-.73-.74-.95-.79-1.32s-.53-.42-1-1.32c-.28-.47-.78-1.25-.78-1.25s-.57,1.22-.94,2.14a2.19,2.19,0,0,0-.13.75,1.37,1.37,0,0,1-.29-.3,3.77,3.77,0,0,0-1.1-.85,17,17,0,0,0-.3,2.67,5.32,5.32,0,0,0,.43,1.94c.17.3.37.79.74,1.49s3,1.63,3.26,2a6.77,6.77,0,0,0,.61.57c0,.24,0,.47,0,.72a23.34,23.34,0,0,0,.58,4.58,3.16,3.16,0,0,1-.22-.35,3.81,3.81,0,0,1-.43-1.3c-.27-1-1-1-1.14-1.39s-1.12-.7-1.64-1-.85-1.29-.85-1.29,0,1.72-.1,2.76a2,2,0,0,0,.21,1.1,2,2,0,0,1-.81-.33,3.83,3.83,0,0,0-1.39-.52,20.29,20.29,0,0,0,.52,2.76,5.1,5.1,0,0,0,1,1.81c.25.28.6.7,1.2,1.3s2.18.75,3.91,1.32a2.31,2.31,0,0,1,1.21.91c.07.23.12.42.16.56.19.76.44,1.68.74,2.67a3.25,3.25,0,0,0-2.28-1c-.6-.1-2.94-.7-2.94-.7a6,6,0,0,1,1.25,2.59,7.66,7.66,0,0,0-2.72,0c.25.17,2.07,1.74,2.31,2.61a9.54,9.54,0,0,0,1.47,2.59c.28.17,1.05,1.12,1.57,1.64s2.59.25,3.29.25a6.56,6.56,0,0,1,1.58.5,16.27,16.27,0,0,0,2.2,2.29A5.81,5.81,0,0,1,420,98.69c-.34-.46,0,1.53.43,2.18a3.12,3.12,0,0,1-1.5-.43c-.58-.45-.08,1.56.54,2.13,1.34,1.2,1.22,1.39,1.43,1.47-1.13.23-2.69.61-3.17.33s.69.87,1.49,1.16c1.15.43,1,1.18,2.24,1.57a9.56,9.56,0,0,0,3.49.8,10.39,10.39,0,0,1,1.89-.47c.75-.1,2-1.1,3.49-1.28,1.4.85,2.83,1.65,4.23,2.32l.22.11a3.2,3.2,0,0,0-.49.07c-.53.12-2.67.59-3.19.34s.54,1.15,1.18,1.68a10.48,10.48,0,0,1-2.92.22c-.7-.15,1.39,1.86,2.21,2.08l.1,0a5.56,5.56,0,0,1-1.59.36c-.72,0,2.29,1.92,3.11,1.8,2.64-.38,5.13.52,6.35,0s1.74-.72,2.29-.9.85-.69,1.2-.94a4.07,4.07,0,0,1,1.36-1.07l0,.08a23.43,23.43,0,0,0,2.78,0,4.25,4.25,0,0,0-1.13.68,29.45,29.45,0,0,0-2.81,1,26.17,26.17,0,0,0-4.4,3.63s2.24-.17,2.59-.17,1.12-1.55,1.46-1.82c.1-.07.68-.36,1.51-.75a3.58,3.58,0,0,0,.7,4.47c-.6-.69.08-1.91.08-1.91l1.22.77c-1.54-2.62.83-4.37,1.62-4.86l.25-.09a1.21,1.21,0,0,0,1,.52,1.19,1.19,0,0,0,.93-.49l.47.18c.92.62,2.86,2.3,1.44,4.74l1.22-.77s.67,1.22.07,1.91a3.59,3.59,0,0,0,.76-4.39c.73.35,1.23.6,1.32.67.35.27,1.12,1.82,1.47,1.82s2.59.17,2.59.17a26.25,26.25,0,0,0-4.41-3.63,25.23,25.23,0,0,0-2.6-.91,4.73,4.73,0,0,0-1.21-.74,23.43,23.43,0,0,0,2.78,0l0,0a4.53,4.53,0,0,1,1.26,1c.35.25.64.74,1.19.94s1.2.48,2.29.9,3.71-.4,6.35,0c.82.12,3.83-1.85,3.11-1.8a5.58,5.58,0,0,1-1.58-.36l.09,0c.82-.22,2.91-2.23,2.22-2.08a10.52,10.52,0,0,1-2.93-.22c.65-.53,1.66-1.92,1.18-1.68s-2.66-.22-3.18-.34a3.16,3.16,0,0,0-.5-.07l.23-.11c1.39-.67,2.82-1.47,4.22-2.32,1.46.18,2.74,1.18,3.49,1.28a10.74,10.74,0,0,1,1.9.47c.77.15,2.16-.37,3.48-.8s1.1-1.14,2.24-1.57c.8-.29,2.12-1.51,1.5-1.16s-2-.1-3.18-.33c.21-.08.09-.27,1.43-1.47.62-.57,1.12-2.58.55-2.13a3.17,3.17,0,0,1-1.51.43c.39-.65.77-2.64.44-2.18a6,6,0,0,1-1.91,1.25,16.69,16.69,0,0,0,2.19-2.29,6.63,6.63,0,0,1,1.59-.5c.69,0,2.76.27,3.28-.25s1.3-1.47,1.57-1.64a9.29,9.29,0,0,0,1.47-2.59c.25-.87,2.07-2.44,2.31-2.61a7.61,7.61,0,0,0-2.71,0,5.9,5.9,0,0,1,1.25-2.59s-2.34.6-2.94.7a3.26,3.26,0,0,0-2.29,1c.3-1,.55-1.91.75-2.67,0-.14.09-.33.15-.56a2.35,2.35,0,0,1,1.22-.91c1.72-.57,3.28-.7,3.9-1.32s1-1,1.2-1.3a5.11,5.11,0,0,0,1-1.81,23.91,23.91,0,0,0,.52-2.76m-6.22-1.67a26.45,26.45,0,0,1-.54,3.53,3.65,3.65,0,0,0-.39-1.41c-.25-.52-.6-.52-.77-1s-.78-.69-1.12-1.12a7.66,7.66,0,0,0-1.05-.94,9.34,9.34,0,0,0-.17,3.28,2.11,2.11,0,0,1,.12.52c-.25-.1-.48-.17-.48-.17-.44,1,.08,2.06.25,3a7.19,7.19,0,0,0,.6,1.22c.17.35.1.67.27.94s.54.26.94.62a4.77,4.77,0,0,0,.21,1.36c-.34,1.11-.7,2.25-1.1,3.38a2.6,2.6,0,0,0-.41-1.2,4.26,4.26,0,0,1-.77-1.39c-.35-1-1.05-1-1.15-1.89a17.1,17.1,0,0,0-.32,2.06,5.07,5.07,0,0,0,.15,1.82,3.16,3.16,0,0,1-.16,1.16,3.34,3.34,0,0,0-.34-1.51,1.73,1.73,0,0,1-.18-1,9,9,0,0,1-1.33,1.76l-.32-.54c4.54-7.94,3.48-21.52,3.31-23.39.74-.15.61-.53.61-.53l-.14-.89a.78.78,0,0,0,.22.12l.16,0a.45.45,0,0,0,.3-.1.52.52,0,0,0,.23-.4v0a2.72,2.72,0,0,0,.92.75c.63.17,1.15.44,1.22.69h0a39.3,39.3,0,0,1,.88,4.94h0c-.69-.77-.87-2.24-2.41-3a4.79,4.79,0,0,1,0,1,6.42,6.42,0,0,0-.15,1.36,4.39,4.39,0,0,1-1.18-1.17,7.21,7.21,0,0,0,.35,3.29c.62,1.12.62,1.72,1.29,2a3.08,3.08,0,0,1,1.05.62,2.31,2.31,0,0,0,1,.42.3.3,0,0,1,.22.14c0,.17.09.35.14.52,0,.46,0,.89,0,1.28m-60.35-9.36,4.6,3.24a15.82,15.82,0,0,0,.66,5.1l-3.82,6.39c-.64-1.37-2.25-5.85-1.44-14.73M417.37,63a1.24,1.24,0,0,1,.8-.6,1.44,1.44,0,0,1-.3,1,.44.44,0,0,1-.25.18.26.26,0,0,1-.23,0,.29.29,0,0,1-.11-.21.44.44,0,0,1,.09-.3m15.11-10.66,3.67,4c-.08,1.11-.23,4.59.72,6.77l-3.33,5.58c-.8-1.62-2.44-6.4-1.06-16.39m14.29-2.61a14.65,14.65,0,0,1,4.9,0l.53.87a13.62,13.62,0,0,0-6,0Zm.42-.69,2-3.41,2,3.39a14.92,14.92,0,0,0-4.06,0m-1.4,2.34a12.88,12.88,0,0,1,6.86,0l.56.94a12.08,12.08,0,0,0-8,0Zm-1.11,1.86a11.48,11.48,0,0,1,9.07,0l14.08,23.52h-5.16a5.46,5.46,0,0,1-.68-.47,1.88,1.88,0,0,0-.24-.18,1.53,1.53,0,0,0-1.16-.22,2.17,2.17,0,0,0-.6.22,3.11,3.11,0,0,0-.54.35s0,0-.06,0a1.19,1.19,0,0,1-.26-.11,6.27,6.27,0,0,1-1.27-.82,2.23,2.23,0,0,0-.41-.27,1.6,1.6,0,0,0-.77-.19,2.09,2.09,0,0,0-.55.08,3.06,3.06,0,0,0-.71.33c-.15.1-.3.2-.44.31a.1.1,0,0,1-.05,0l0,0a4.62,4.62,0,0,0-.83-.42,4.69,4.69,0,0,1-.74-.38,9.46,9.46,0,0,1-1-.69,2.08,2.08,0,0,0-.34-.24,1.88,1.88,0,0,0-.82-.26,2,2,0,0,0-.6,0,2.62,2.62,0,0,0-.75.28,2.85,2.85,0,0,0-.37.23V66.21c.86,0,1.53-.35,1.53-.72s-.63-2.81-1.45-3.4a1.51,1.51,0,0,0-1.71-.05s-1.07.62-.52,1.49c0,0,.11.27.58.08a.63.63,0,0,0,.38-.47v.21c0,.3-.42.47-.44.48a7.69,7.69,0,0,0-.43,1.66c0,.37.67.67,1.54.72v8.27l-.08,0a8.21,8.21,0,0,1-1-.73,2.55,2.55,0,0,0-.38-.26,2,2,0,0,0-.82-.27,2.05,2.05,0,0,0-.7,0,3.26,3.26,0,0,0-.79.29,5.84,5.84,0,0,0-.74.48l-.06,0-.06,0L444,73.8a4.09,4.09,0,0,0-.47-.23,4.85,4.85,0,0,1-.62-.27,9.69,9.69,0,0,1-1.61-1.09l-.14-.11a2.51,2.51,0,0,0-1.33-.53h-.38a3.12,3.12,0,0,0-.91.23,5.12,5.12,0,0,0-.95.52,8.12,8.12,0,0,0-.95.79,13.36,13.36,0,0,0-1.08,1.18,14.33,14.33,0,0,0-.9,1.26l0,.06c-.21.25-.42.49-.65.72s-.29.26-.44.39h-2.87Zm20.24,15.48-3.33-5.57c1-2.19.8-5.66.72-6.77l3.66-4c1.39,10-.25,14.76-1.05,16.38m15.37-6.32a1.27,1.27,0,0,1,.8.61.4.4,0,0,1,.09.29.29.29,0,0,1-.11.21.23.23,0,0,1-.23,0,.41.41,0,0,1-.25-.18,1.39,1.39,0,0,1-.3-1m-7.74,19.07-3.82-6.39a15.38,15.38,0,0,0,.65-5.09L474,66.76c.8,8.86-.8,13.34-1.44,14.72m-49.37,7.71,3.59-6h43.59l-.05,0-.22-.12a6.66,6.66,0,0,1-.75-.52c-.43-.34-.83-.7-1.23-1.07-.58-.54-1.13-1.1-1.67-1.67-.36-.37-.71-.75-1.06-1.13a5.44,5.44,0,0,0-.47-.49,5.7,5.7,0,0,0-1-.75,4.31,4.31,0,0,0-.47-.26h4.59l7.21,12Zm7.21-12h2.66a16.56,16.56,0,0,1-1.61,1.26l-.15.1a8.85,8.85,0,0,0-.87.59c-.45.35-.89.72-1.31,1.1s-.84.77-1.24,1.16Zm18.74-1.63.3.13.34.16a5.36,5.36,0,0,1,.88.58,8.51,8.51,0,0,1,1.27,1.2c.59.66,1.2,1.31,1.82,2l.77.78c.65.65,1.32,1.29,2,1.9a.69.69,0,0,1,.13.11l0,0v0h-3.41a.13.13,0,0,1-.1,0l-.23-.17q-.7-.56-1.38-1.17c-.51-.46-1-.93-1.51-1.42-1.07-1-2.12-2.14-3.13-3.26l-.53-.58a11.55,11.55,0,0,0-1.26-1.16l-.05,0,0,0a2.93,2.93,0,0,1,.69-.39,2.18,2.18,0,0,1,.44-.11,1.16,1.16,0,0,1,.75.13,1.77,1.77,0,0,1,.32.21,9.53,9.53,0,0,0,.81.61,7.52,7.52,0,0,0,1,.56m13.73,2.26.16.07a2.69,2.69,0,0,1,.38.19,5.25,5.25,0,0,1,.89.68c.17.16.34.33.5.51.32.36.65.71,1,1.06l.91.93c.37.37.74.73,1.13,1.08,0,0,0,0,.05.06H466a.16.16,0,0,1-.12,0c-.36-.3-.71-.6-1.05-.91l-1-.94c-.71-.69-1.39-1.41-2.06-2.15l-.42-.46a7.76,7.76,0,0,0-1.07-.92l-.05,0v0a1.6,1.6,0,0,1,.52-.23.7.7,0,0,1,.53.09,1.33,1.33,0,0,1,.19.14,6.35,6.35,0,0,0,1.4.88m-2.57.25a9.93,9.93,0,0,1,.73.72c.49.56,1,1.1,1.51,1.63s.93.94,1.42,1.4l.58.53.05,0h-2.71a.14.14,0,0,1-.09,0l-.53-.44c-.5-.42-1-.86-1.45-1.32-.28-.26-.55-.53-.82-.8-.71-.71-1.4-1.44-2.07-2.18-.14-.16-.29-.33-.44-.48a8.88,8.88,0,0,0-.78-.73l0,0h0l0,0a3.25,3.25,0,0,1,.57-.33,1.43,1.43,0,0,1,.41-.09.8.8,0,0,1,.43.1,1.32,1.32,0,0,1,.25.16,7.09,7.09,0,0,0,1.34.89,3,3,0,0,0,.41.18,2.58,2.58,0,0,1,.37.19,4.7,4.7,0,0,1,.85.61m-4.13,0c.38.43.77.85,1.16,1.27l1.08,1.11c.62.63,1.26,1.24,1.92,1.82l.15.13,0,0h-2.42a.13.13,0,0,1-.1,0l-.53-.42q-.85-.72-1.65-1.5l-.86-.84q-1.14-1.14-2.22-2.34l-.5-.55a10.22,10.22,0,0,0-1.41-1.21q-.36-.24-.75-.45l0,0s0,0,0,0a2.06,2.06,0,0,1,.7-.3,1,1,0,0,1,.39,0,1.07,1.07,0,0,1,.44.13,2,2,0,0,1,.3.21,8.09,8.09,0,0,0,1.69,1.08l.26.11a3.55,3.55,0,0,1,.44.21,6.37,6.37,0,0,1,.9.64,9.16,9.16,0,0,1,1,1m-10.64-2c.24.23.46.47.68.72l.74.81c.44.48.89.95,1.35,1.42.82.84,1.66,1.66,2.52,2.45.34.3.67.6,1,.89l.06,0H428.06s0,0,0,0l.33-.33c.35-.35.71-.7,1.08-1s.91-.8,1.39-1.17a9.55,9.55,0,0,1,.9-.62L432,79a17.87,17.87,0,0,0,2.14-1.74,11.75,11.75,0,0,0,1.08-1.15l.06-.09a14.26,14.26,0,0,1,.92-1.28,12.64,12.64,0,0,1,.85-.94,7.38,7.38,0,0,1,1-.84,4.28,4.28,0,0,1,.76-.41,2.19,2.19,0,0,1,.56-.14,1.6,1.6,0,0,1,1,.18,3.27,3.27,0,0,1,.36.25c.27.23.55.43.83.63a9.32,9.32,0,0,0,1.05.62l.58.26a2.76,2.76,0,0,1,.39.18,8.13,8.13,0,0,1,1,.62,11.38,11.38,0,0,1,1,.86m-5.37,14.74A11.23,11.23,0,0,0,444,92.61c-.93.28-6.92,1.86-12.05-1.86Zm8.17,4.87s.57-3,.9-4.87h0c.33,1.89.9,4.87.9,4.87a3.44,3.44,0,0,1-.9,2.78,3.4,3.4,0,0,1-.91-2.78m10-4.87h8.2c-5.12,3.72-11.12,2.14-12,1.86a11.31,11.31,0,0,0,3.84-1.86m20.87-29.38a.45.45,0,0,1-.08-.33.3.3,0,0,1,.09-.15l.07.06a2.51,2.51,0,0,1,.73.72,1.07,1.07,0,0,1,0,.31,1.5,1.5,0,0,1-.81-.61M472.74,47a.37.37,0,0,1-.51,0,1.6,1.6,0,0,1-.48-.82s0,0,0,0a1.25,1.25,0,0,1,.88.42.36.36,0,0,1,.09.49m-.69-2.36.93-.31h0l-.23.95-.73.1Zm-1.71.18a.24.24,0,0,1,.2-.08.47.47,0,0,1,.31.13,1.37,1.37,0,0,1,.48.79.28.28,0,0,0-.16,0,1.68,1.68,0,0,1-.75-.4.35.35,0,0,1-.08-.49m-20-11.13h.1a.35.35,0,0,1,.39.31c0,.17-.17.31-.4.31a1.46,1.46,0,0,1-.95-.31,1.18,1.18,0,0,1,.86-.31m-1.13-1.83h0l.47.85-.47.58h0l-.47-.57ZM448,34.32h0a.44.44,0,0,1-.32-.12.31.31,0,0,1-.08-.19.33.33,0,0,1,.08-.19.55.55,0,0,1,.33-.12,1.35,1.35,0,0,1,1,.31,1.42,1.42,0,0,1-1,.31M449,40a8.64,8.64,0,0,0,1-2.32,12.6,12.6,0,0,1-.31,5.55l-.45-.74-1.44,2.42A7.88,7.88,0,0,1,449,40m-21.4,4.86a.38.38,0,0,1,.31-.12.24.24,0,0,1,.19.08.22.22,0,0,1,.06.19.46.46,0,0,1-.15.31,1.53,1.53,0,0,1-.87.41h-.05a1.28,1.28,0,0,1,.51-.87m-2.14-.53h0l.92.31,0,.74-.74-.1Zm.43,2.75a.26.26,0,0,1-.26-.27.52.52,0,0,1,.16-.31,1.34,1.34,0,0,1,.85-.42h.06a1.42,1.42,0,0,1-.5.87.38.38,0,0,1-.31.12m-6.64,14.28a1.42,1.42,0,0,1-.8.61.94.94,0,0,1,0-.29,2.49,2.49,0,0,1,.74-.74.18.18,0,0,1,.07-.05.3.3,0,0,1,.08.17.43.43,0,0,1-.09.3m-5.62,13.47a5,5,0,0,0,.14-.52.32.32,0,0,1,.23-.14,2.27,2.27,0,0,0,1-.42,3.08,3.08,0,0,1,1.05-.62c.67-.25.67-.85,1.29-2a7.21,7.21,0,0,0,.35-3.29,4.24,4.24,0,0,1-1.18,1.17,5.82,5.82,0,0,0-.15-1.36,4.79,4.79,0,0,1,0-1c-1.54.8-1.71,2.27-2.41,3h0a41.2,41.2,0,0,1,.88-4.94h0c.07-.25.6-.52,1.22-.69a2.73,2.73,0,0,0,.91-.73h0a.51.51,0,0,0,.22.4.47.47,0,0,0,.3.1l.16,0a1,1,0,0,0,.23-.12l-.14.89s-.13.38.6.53c-.17,1.87-1.23,15.47,3.32,23.41l-.31.52a9.26,9.26,0,0,1-1.33-1.76,1.66,1.66,0,0,1-.18,1,3.47,3.47,0,0,0-.34,1.51,3.14,3.14,0,0,1-.15-1.16,5.31,5.31,0,0,0,.15-1.82,18.45,18.45,0,0,0-.33-2.06c-.1.94-.79.94-1.14,1.89a4.45,4.45,0,0,1-.77,1.39,2.63,2.63,0,0,0-.42,1.2c-.39-1.13-.76-2.27-1.09-3.38a5.17,5.17,0,0,0,.21-1.36c.39-.36.77-.39.93-.62s.1-.59.27-.94a6.51,6.51,0,0,0,.6-1.22c.18-1,.7-2,.25-3l-.48.17a2,2,0,0,1,.13-.52,9.36,9.36,0,0,0-.18-3.28,7.82,7.82,0,0,0-1,.94c-.35.43-1,.6-1.12,1.12s-.52.53-.77,1a3.65,3.65,0,0,0-.4,1.41,24.47,24.47,0,0,1-.53-3.53c0-.39,0-.82,0-1.28m39.09,35.86a4.88,4.88,0,0,0-2.23.56l0-.07a40.07,40.07,0,0,1,3-4.43,3.82,3.82,0,0,1-.77,3.94m-4.64.56a5,5,0,0,0-2.23-.56,3.83,3.83,0,0,1-.78-3.94,41.87,41.87,0,0,1,3,4.43.11.11,0,0,0,0,.07m26.65-10.92a.82.82,0,0,0,.11-.25,5.51,5.51,0,0,0,.34-1.65,9.26,9.26,0,0,0-.52-2.06c-.25-.62-.84-2.07-1.47-2.34l-.67,2.24a5.11,5.11,0,0,1-.62,1.64,7.29,7.29,0,0,0-.38.66,4.43,4.43,0,0,1,0-1.16c.1-1.14-1.72-2.93-1.72-2.93a6.13,6.13,0,0,1-.87,2.93,6.39,6.39,0,0,0-1,2.49,2.92,2.92,0,0,1-.69,1.64c-.52.71.06,3.66.12,4-1.15.71-2.36,1.41-3.48,2l-1.13.51c.07-.08.15-.14.23-.22a6,6,0,0,0,1.72-2.66c.53-.09-.73-.23-1.46-.16.43-.65,1-1.54,1.43-2.3s-2.79.2-2.79.2l-.82.32a15.3,15.3,0,0,0,.5-2.19c0-.25-1.32.18-2.37.63a16,16,0,0,0-2.19,1.56c-.92.6-1,2.09-1.47,2.79a5.88,5.88,0,0,0-.54,1.16,1.38,1.38,0,0,0-.61-1.16h0l0,0h0a.61.61,0,0,0-.18,0c-.19,0-.52-.09-1-.15a2.26,2.26,0,0,0-2.34,1,29.61,29.61,0,0,0-1.14,3.65,1.06,1.06,0,0,0-.4-.08,1.1,1.1,0,0,0-.4.08,28,28,0,0,0-1.14-3.65,2.25,2.25,0,0,0-2.34-1c-.51.06-.83.11-1,.15a.48.48,0,0,0-.17,0h-.05l0,0h0c-.32.17-.63.59-.65,1.61a4.33,4.33,0,0,0-.64-1.61c-.42-.7-.55-2.19-1.47-2.79a15.39,15.39,0,0,0-2.19-1.56c-1.05-.45-2.34-.88-2.37-.63a14.43,14.43,0,0,0,.51,2.19l-.83-.32s-3.11-.83-2.79-.2,1,1.65,1.44,2.3c-.74-.07-2,.07-1.46.16a5.88,5.88,0,0,0,1.72,2.66c.07.08.15.14.23.22-.42-.18-.8-.35-1.13-.51-1.13-.57-2.34-1.27-3.49-2,.07-.34.64-3.29.13-4a2.92,2.92,0,0,1-.7-1.64,6.23,6.23,0,0,0-.95-2.49,6.25,6.25,0,0,1-.87-2.93s-1.81,1.79-1.72,2.93a4.22,4.22,0,0,1,0,1.16c-.16-.3-.31-.55-.38-.66a5.1,5.1,0,0,1-.63-1.64c-.17-.6-.67-2.24-.67-2.24-.62.27-1.22,1.72-1.47,2.34a9.85,9.85,0,0,0-.52,2.06,5.24,5.24,0,0,0,.35,1.65,1.07,1.07,0,0,0,.1.25,13.76,13.76,0,0,1-3.4-3.48,1.73,1.73,0,0,1,.36-.9,6.85,6.85,0,0,0,1.3-2,4.67,4.67,0,0,0,0-1.56,14.9,14.9,0,0,1,.24-1.55l0-.1h1.45c2.59,1.91,11.87,7.77,22.8,3a1.68,1.68,0,0,1-.17.39s-2.35,3.18,3,4.26h0c5.3-1.08,2.95-4.26,2.95-4.26a1.61,1.61,0,0,1-.17-.4c10.93,4.78,20.22-1.08,22.8-3h1.47l0,.1a14.35,14.35,0,0,1,.25,1.55,4.41,4.41,0,0,0,0,1.56,6.64,6.64,0,0,0,1.29,2,1.81,1.81,0,0,1,.37.9,13.79,13.79,0,0,1-3.41,3.48"/><path class="cls-1" d="M466.29,103.32a.51.51,0,1,0,0,1,.51.51,0,1,0,0-1"/><path class="cls-1" d="M469.22,106.92a.53.53,0,0,0-.52.52.52.52,0,0,0,.52.53.53.53,0,0,0,.53-.53.55.55,0,0,0-.53-.52"/><path class="cls-1" d="M476.05,95.53a.52.52,0,0,0-.52.52.55.55,0,0,0,.52.53.52.52,0,0,0,.52-.53.5.5,0,0,0-.52-.52"/><path class="cls-1" d="M479.71,98.11a.58.58,0,0,0,.57.57.57.57,0,0,0,.58-.57.58.58,0,0,0-.58-.57.59.59,0,0,0-.57.57"/><path class="cls-1" d="M481.05,85.9a.56.56,0,0,0,.57-.57.58.58,0,0,0-.57-.57.59.59,0,0,0-.57.57.58.58,0,0,0,.57.57"/><path class="cls-1" d="M482.8,74.4a.57.57,0,0,0-.58.57.58.58,0,1,0,1.15,0,.56.56,0,0,0-.57-.57"/><path class="cls-1" d="M486,65.07A.56.56,0,1,0,486,64a.56.56,0,1,0,0,1.12"/><path class="cls-1" d="M481.92,66.11a.57.57,0,0,0,.58-.57.58.58,0,0,0-1.15,0,.56.56,0,0,0,.57.57"/><path class="cls-1" d="M478.51,56.81a.56.56,0,0,0-.57-.55.56.56,0,1,0,0,1.12.56.56,0,0,0,.57-.57"/><path class="cls-1" d="M481,55a.56.56,0,0,0,.57-.57.58.58,0,0,0-1.15,0A.57.57,0,0,0,481,55"/><path class="cls-1" d="M486.7,75.07a.56.56,0,0,0,.58.55.55.55,0,0,0,0-1.1.56.56,0,0,0-.58.55"/><path class="cls-1" d="M432.18,103.32a.51.51,0,1,0,0,1,.51.51,0,1,0,0-1"/><path class="cls-1" d="M429.77,107.44a.52.52,0,0,0-.52-.52.55.55,0,0,0-.53.52.52.52,0,0,0,.53.52.51.51,0,0,0,.52-.52"/><path class="cls-1" d="M422.43,95.53a.51.51,0,0,0-.53.52.53.53,0,0,0,.53.53.55.55,0,0,0,.52-.53.52.52,0,0,0-.52-.52"/><path class="cls-1" d="M418.19,98.69a.58.58,0,0,0,.57-.57.59.59,0,0,0-.57-.57.58.58,0,0,0-.57.57.56.56,0,0,0,.57.57"/><path class="cls-1" d="M417.42,84.75a.58.58,0,0,0-.57.57.56.56,0,0,0,.57.57.57.57,0,0,0,.57-.57.59.59,0,0,0-.57-.57"/><path class="cls-1" d="M414.43,86.37a.56.56,0,0,0-.57-.57.57.57,0,1,0,0,1.14.56.56,0,0,0,.57-.57"/><path class="cls-1" d="M415.68,75.55a.58.58,0,0,0,.57-.57.57.57,0,0,0-.57-.58.56.56,0,0,0-.57.58.57.57,0,0,0,.57.57"/><path class="cls-1" d="M412.49,65.07a.56.56,0,1,0,0-1.12.56.56,0,1,0,0,1.12"/><path class="cls-1" d="M416.55,65a.58.58,0,0,0-.57.57.56.56,0,0,0,.57.57.56.56,0,0,0,.57-.57.58.58,0,0,0-.57-.57"/><path class="cls-1" d="M420,56.81a.56.56,0,0,0,.57.57.56.56,0,1,0,0-1.12.56.56,0,0,0-.57.55"/><path class="cls-1" d="M417.5,55a.56.56,0,0,0,.57-.57.58.58,0,0,0-1.15,0,.57.57,0,0,0,.58.57"/><path class="cls-1" d="M411.77,75.07a.56.56,0,1,0-.57.55.56.56,0,0,0,.57-.55"/><path class="cls-1" d="M442.5,67.06c.25,0,.33,0,.43.25l.14,0-.14-.35,1-.42-.1-.2-1.39.62Z"/><path class="cls-1" d="M442.18,65.27l-.2,0,.17.77L443,66l0-.15a.38.38,0,0,1-.23-.25.33.33,0,0,1,.25-.39.31.31,0,0,1,.42.22.27.27,0,0,1-.17.37l.05.2a.44.44,0,0,0,.3-.57A.51.51,0,0,0,443,65a.48.48,0,0,0-.38.59.49.49,0,0,0,.18.28l-.42,0Z"/><path class="cls-1" d="M442.25,64c.28,0,.35-.2.4-.3l.1-.32c.08-.25.13-.32.3-.3s.25.27.22.42-.12.43-.39.4l0,.2a.47.47,0,0,0,.42-.12.73.73,0,0,0,.18-.45c0-.28-.05-.62-.42-.65a.38.38,0,0,0-.43.3l-.15.45a.21.21,0,0,1-.22.17c-.22,0-.25-.25-.22-.4a.32.32,0,0,1,.34-.35v-.19c-.17,0-.49,0-.54.57a.48.48,0,0,0,.44.57"/><polygon class="cls-1" points="443.87 61.64 443.7 61.59 443.4 62.49 442.9 62.31 443.18 61.52 443 61.44 442.73 62.26 442.28 62.11 442.58 61.24 442.38 61.17 442.03 62.26 443.52 62.74 443.87 61.64"/><path class="cls-1" d="M444.09,61.29l-.57-.36.25-.41a.45.45,0,0,0-.15-.66.4.4,0,0,0-.32,0,.45.45,0,0,0-.3.23l-.34.59,1.31.82Zm-1.16-.75.23-.36a.22.22,0,0,1,.23-.14s.07,0,.11.05.15.23.05.38l-.19.32Z"/><polygon class="cls-1" points="444 59.1 444.99 60.05 445.12 59.9 444.14 58.95 444.52 58.55 444.37 58.43 443.5 59.35 443.62 59.47 444 59.1"/><polygon class="cls-1" points="445.81 59.32 444.87 58.08 444.72 58.2 445.64 59.45 445.81 59.32"/><polygon class="cls-1" points="447.08 58.58 447.01 58.43 446.16 58.85 445.94 58.41 446.69 58.01 446.61 57.83 445.84 58.23 445.61 57.81 446.44 57.39 446.36 57.21 445.34 57.73 446.06 59.13 447.08 58.58"/><path class="cls-1" d="M447.46,58.48l-.2-.92a1.49,1.49,0,0,1-.1-.37l.72,1.19.2-.05.15-1.37a1.7,1.7,0,0,1,.08.38l.19.89.2,0-.32-1.55-.3.08-.15,1.39-.72-1.19-.3.05.35,1.52Z"/><path class="cls-1" d="M449.61,58.21c.35,0,.56-.16.56-.41a.35.35,0,0,0-.27-.39.37.37,0,0,0,.22-.33c0-.22-.12-.4-.42-.43H449L449,58.19Zm-.35-1.36.34,0c.22,0,.3.07.3.22s-.12.22-.32.2h-.36Zm.34.68c.15,0,.32,0,.32.25s-.13.25-.32.25l-.4,0,0-.51Z"/><polygon class="cls-1" points="449.01 56.64 449.02 56.64 449.02 56.64 449.01 56.64"/><path class="cls-1" d="M450.71,57.71l.5.15c.25.07.22.21.2.34a.7.7,0,0,0-.07.37l.25.08v0c0-.05,0-.08,0-.18l0-.27c.07-.2,0-.27-.08-.32.1,0,.26-.08.31-.31s-.13-.46-.38-.54l-.7-.23-.41,1.52.2.06Zm.25-.66.45.16c.1,0,.25.07.18.29s-.19.18-.34.16l-.43-.13Z"/><polygon class="cls-1" points="452.73 59.32 452.81 59.17 452.01 58.7 452.26 58.25 453.01 58.67 453.11 58.52 452.36 58.08 452.61 57.68 453.41 58.15 453.51 57.98 452.51 57.4 451.74 58.75 452.73 59.32"/><path class="cls-1" d="M453.7,60.31a.71.71,0,0,0,1,0,.66.66,0,0,0,.16-1l-.41-.47-1.18,1Zm1-.86c.17.2.14.41-.13.66s-.52.22-.7,0l-.23-.27.82-.7Z"/><polygon class="cls-1" points="454.75 62.01 454.93 61.94 454.5 61.09 454.98 60.87 455.35 61.64 455.52 61.54 455.12 60.79 455.57 60.57 455.97 61.39 456.15 61.31 455.62 60.29 454.23 60.99 454.75 62.01"/><path class="cls-1" d="M456.07,63l-1.07.15,0,.2,1.52-.22,0-.15c-.24,0-.27-.1-.34-.35l-.15,0Z"/><path class="cls-1" d="M456.19,63.92a.28.28,0,0,0-.3.21.43.43,0,0,0-.38-.31.46.46,0,0,0-.36.15.6.6,0,0,0-.12.37.45.45,0,0,0,.45.52.34.34,0,0,0,.39-.21.31.31,0,0,0,.31.2c.19,0,.41-.1.41-.45a.41.41,0,0,0-.4-.48m-.71.73c-.23,0-.25-.18-.25-.31a.24.24,0,0,1,.28-.26.24.24,0,0,1,.23.3.24.24,0,0,1-.26.27m.71,0a.3.3,0,0,1-.23-.29.22.22,0,0,1,.23-.21c.1,0,.23,0,.2.25s-.12.25-.2.25"/><path class="cls-1" d="M456,65.19l0,.2c.1,0,.35.1.28.37s-.23.28-.33.23-.25-.18-.29-.35l-.06-.23a.68.68,0,0,0-.52-.49l-.25,1,.18,0,.2-.82c.07,0,.17.1.22.32l.05.17c.08.28.15.48.4.53a.47.47,0,0,0,.57-.35.5.5,0,0,0-.42-.65"/><path class="cls-1" d="M455.68,66.64l-.15.32-1-.47-.1.2,1.4.65,0-.15c-.2-.15-.18-.25-.08-.5Z"/><path class="cls-1" d="M447.34,72.13l.16,0,1.15-4.72-.17,0-1.13,4.66Z"/><path class="cls-1" d="M447.17,70.11l.16.06,1-2.8-.16-.05-.94,2.75Z"/><path class="cls-1" d="M445.54,71.84l.15.07,2.21-4.65-.15-.06-2.19,4.6Z"/><path class="cls-1" d="M445.19,71.06l2.4-4-.15-.08L445.05,71Z"/><path class="cls-1" d="M443.72,71.13l0,0,.13.11,3.41-4.35a.69.69,0,0,0-.13-.11Z"/><path class="cls-1" d="M443.94,70.05l3-3.35h0l-.13-.11-3,3.36Z"/><path class="cls-1" d="M446.7,66.45l-.11-.13-4.47,3.94.11.12,4.45-3.92Z"/><path class="cls-1" d="M446.45,66.16h0l-.11-.13L444,67.69l0,0,.11.13Z"/><path class="cls-1" d="M446.24,65.86l-.08-.15-1.65.92.08.15Z"/><path class="cls-1" d="M444.27,66.16l.06.16,1.75-.76c0-.06-.06-.1-.09-.15Z"/><polygon class="cls-1" points="444.07 65.64 444.12 65.8 445.89 65.23 445.93 65.22 445.88 65.06 444.07 65.64"/><path class="cls-1" d="M445.83,64.87a1.24,1.24,0,0,1,0-.16l-1.86.4,0,.17Z"/><path class="cls-1" d="M443.83,64.55l0,.17,1.92-.2a1.11,1.11,0,0,1,0-.17Z"/><path class="cls-1" d="M443.8,64.16l1.93,0s0,0,0-.08,0-.06,0-.09l-1.93,0Z"/><path class="cls-1" d="M443.84,63.64l1.87.16h0c0-.06,0-.12,0-.17l-1.87-.16h0Z"/><path class="cls-1" d="M443.89,63l1.89.41a.94.94,0,0,1,0-.16l-1.9-.42Z"/><path class="cls-1" d="M444.05,62.53l1.79.59h0a1.42,1.42,0,0,0,.05-.16l-1.81-.6Z"/><path class="cls-1" d="M444.27,61.85l-.07.15,1.78.76.07-.15-1.74-.74Z"/><path class="cls-1" d="M444.45,61.5l1.68.92h0a1.09,1.09,0,0,1,.08-.15l-1.7-.92Z"/><path class="cls-1" d="M444.77,61l1.54,1.1a1.47,1.47,0,0,1,.1-.13l-1.54-1.11Z"/><path class="cls-1" d="M445.25,60.46l-.11.13,1.41,1.22h0l.11-.13-1.39-1.2Z"/><path class="cls-1" d="M445.65,60.08l-.13.12,1.29,1.35.13-.11-1.27-1.33Z"/><path class="cls-1" d="M446.08,59.73l-.14.11,1.17,1.46.14-.11-1.15-1.43Z"/><path class="cls-1" d="M446.62,59.42l-.15.08.92,1.6h0l.15-.08-.91-1.57Z"/><path class="cls-1" d="M447.1,59.21l-.16.07.77,1.67.16-.08-.76-1.62Z"/><path class="cls-1" d="M447.64,59l-.16,0,.6,1.74.17-.05-.6-1.7Z"/><path class="cls-1" d="M448.2,58.85l-.16,0,.37,1.81h0l.17,0-.37-1.79Z"/><path class="cls-1" d="M448.8,60.65l.17,0-.18-1.85h-.17Z"/><path class="cls-1" d="M449.29,58.76h-.17l0,1.86h0l.14,0,0-1.83Z"/><path class="cls-1" d="M449.48,60.62v0l.17,0,.18-1.87-.17,0Z"/><path class="cls-1" d="M450,60.72h0l.37-1.85-.17,0-.37,1.84.13,0"/><path class="cls-1" d="M450.92,59.07l-.16-.06-.58,1.73v0l.16,0,.58-1.72Z"/><path class="cls-1" d="M451.44,59.27l-.16-.07-.74,1.67v0l.17.07.72-1.65Z"/><polygon class="cls-1" points="451.75 59.42 450.86 61.01 450.84 61.04 450.98 61.13 451.89 59.5 451.75 59.42"/><path class="cls-1" d="M451.13,61.2l0,0,.14.1,1.12-1.46,0,0-.14-.11Z"/><polygon class="cls-1" points="451.41 61.45 451.54 61.57 452.78 60.22 452.81 60.19 452.68 60.07 451.41 61.45"/><rect class="cls-1" x="451.49" y="61.06" width="1.86" height="0.17" transform="translate(74.54 317.32) rotate(-41.83)"/><path class="cls-1" d="M452,62l0,0a1.47,1.47,0,0,0,.1.13l1.47-1.08,0,0-.1-.13Z"/><path class="cls-1" d="M452.13,62.25l0,0a1.09,1.09,0,0,1,.08.15l1.62-.91,0,0-.09-.15Z"/><path class="cls-1" d="M452.3,62.59h0l.07.15L454,62l0,0-.07-.15Z"/><path class="cls-1" d="M452.41,63a1,1,0,0,1,0,.16l1.73-.58,0,0-.06-.16Z"/><path class="cls-1" d="M452.51,63.26c0,.06,0,.11,0,.17l1.83-.42,0-.16Z"/><path class="cls-1" d="M452.57,63.61a1,1,0,0,1,0,.17l1.8-.16h.05l0-.16Z"/><path class="cls-1" d="M452.61,64.06v.06l1.84,0V64l-1.86,0s0,.07,0,.11"/><path class="cls-1" d="M452.55,64.68l0,.17,1.78.4,0-.16Z"/><path class="cls-1" d="M454.41,64.69l0-.17-1.84-.2v0s0,.09,0,.13l1.79.2Z"/><path class="cls-1" d="M454.15,65.77l.05-.16L452.5,65h-.05s0,.1,0,.15l1.7.57Z"/><path class="cls-1" d="M452.35,65.38a1.09,1.09,0,0,1-.08.15l1.63.74h0l.07-.15Z"/><path class="cls-1" d="M452.11,65.82l1.55.89,0,0,.08-.14-1.59-.92a1.09,1.09,0,0,1-.08.15"/><path class="cls-1" d="M451.91,66.12l2.31,1.69.1-.14L452,66a1.27,1.27,0,0,1-.11.13"/><path class="cls-1" d="M451.78,66.29l-.11.13,4.26,3.89,0,0,.11-.13-4.27-3.9Z"/><path class="cls-1" d="M451.41,66.65,454.32,70l.13-.1-2.9-3.35h0a.73.73,0,0,1-.09.08l0,0"/><path class="cls-1" d="M451.15,66.87l3.28,4.33.14-.1-3.29-4.34a.69.69,0,0,1-.13.11"/><path class="cls-1" d="M450.81,67.07,453.09,71l0,0,.15-.08L451,67l-.15.08"/><path class="cls-1" d="M450.51,67.23l2.1,4.58,0,0,.16-.07-2.13-4.62-.15.08"/><path class="cls-1" d="M450.14,67.35l.9,2.73,0,0,.16-.06-.92-2.76-.16,0"/><path class="cls-1" d="M449.8,67.44l1.1,4.67.16,0L450,67.4l-.17,0"/><path class="cls-1" d="M433.38,98.47s-.53.61-.24,1.13a.88.88,0,0,0,1.33,0s-1.28,0-1.09-1.13"/><path class="cls-1" d="M464,99.6a.87.87,0,0,0,1.32,0c.3-.52-.23-1.13-.23-1.13.19,1.15-1.09,1.13-1.09,1.13"/><path class="cls-1" d="M438.18,97.82l-.27-.16-.69,1.15.28.16a.6.6,0,0,0,.91-.24.61.61,0,0,0-.23-.91"/><path class="cls-1" d="M440.42,99a.66.66,0,0,0-.88.33.67.67,0,0,0,.29.92.68.68,0,0,0,.9-.36.66.66,0,0,0-.31-.89"/><path class="cls-1" d="M448.19,101a.66.66,0,0,0-.69.64.68.68,0,0,0,.62.74.67.67,0,0,0,.69-.67.66.66,0,0,0-.62-.71"/><path class="cls-1" d="M454.5,101.09l-.38.1.16.59.38-.1a.29.29,0,0,0,.22-.37.29.29,0,0,0-.38-.22"/><path class="cls-1" d="M454.61,100.57a.24.24,0,0,0-.32-.18l-.36.09.14.51.36-.09a.26.26,0,0,0,.18-.33"/><path class="cls-1" d="M457.06,99.5a.55.55,0,0,0-.24,0l-.27.11.24.59.33-.13a.3.3,0,0,0,.17-.42.29.29,0,0,0-.23-.2"/><path class="cls-1" d="M459.36,98.66l.09.59.48-.26-.44-.4a2.23,2.23,0,0,1-.18-.19h0l.06.25"/><path class="cls-1" d="M464.41,98.79l-.56-.21a2.14,2.14,0,0,1,1.23-.11l-.69-.62a4.51,4.51,0,0,0-5.1-.65,19.07,19.07,0,0,1-20.12,0,4.51,4.51,0,0,0-5.1.65l-.69.62a2.14,2.14,0,0,1,1.23.11l-.56.21c.71.29.42.81.42.81l.87-.77a32.61,32.61,0,0,1,3.83,1.91,19.73,19.73,0,0,0,10.06,2.55h0a19.76,19.76,0,0,0,10.06-2.55,32.61,32.61,0,0,1,3.83-1.91l.87.77s-.29-.52.42-.81m-27,.38-.5-.3.9-1.53.51.3a.83.83,0,0,1,.32,1.22.84.84,0,0,1-1.23.31m1.26.71-.22-.12.84-1.56.22.12Zm1.08.57a.9.9,0,0,1-.43-1.23A.91.91,0,0,1,441,100a.91.91,0,0,1-1.22.46m2.47-.53a.63.63,0,0,0-.31-.29.28.28,0,0,0-.39.13c-.13.34.7.56.49,1.09a.51.51,0,0,1-.7.27.83.83,0,0,1-.46-.43l.19-.13a.69.69,0,0,0,.36.34.27.27,0,0,0,.38-.13c.14-.36-.69-.59-.5-1.1a.53.53,0,0,1,.72-.25.75.75,0,0,1,.4.34Zm1.47,2a.64.64,0,0,1-.5-.82l.29-1.11.24.07-.29,1.1a.45.45,0,0,0,.87.23l.29-1.1.25.06-.3,1.11a.65.65,0,0,1-.85.46m2.53.5-.24,0-.58-1.28a2.65,2.65,0,0,1-.1-.28h0s0,.16,0,.26l-.21,1.13-.25,0,.32-1.75.24,0,.58,1.28a2.65,2.65,0,0,1,.1.28h0a2.49,2.49,0,0,1,0-.26l.21-1.13.24,0Zm.67.07-.25,0,.21-1.77.24,0Zm1.23.13a.92.92,0,1,1,.09-1.83.92.92,0,0,1-.09,1.83m2.43,0-.84-1.12a2.58,2.58,0,0,1-.16-.25h0s0,.16,0,.26l.05,1.15h-.25l-.07-1.77h.25l.83,1.12a2.58,2.58,0,0,1,.16.25h0s0-.16,0-.26l0-1.15h.25l.07,1.77Zm1.65-.17-.28-1.75.24,0,.25,1.54.78-.12,0,.21Zm1.24-.21-.36-1.75.24,0,.36,1.75Zm1.27-.3-.61.16-.45-1.72.6-.15a.44.44,0,0,1,.61.3.4.4,0,0,1-.12.43h0a.43.43,0,0,1,.39.34.51.51,0,0,1-.43.64m.9-.25L455,100l1-.33.06.21-.74.25.18.53.6-.2.07.2-.61.2.18.54.79-.26.07.21Zm2.23-.82-.61-.51-.35.14.26.65-.23.1-.66-1.65.5-.2a1.17,1.17,0,0,1,.33-.09.54.54,0,0,1,.34.9h0l.08,0,.6.5Zm.87-.39L458,99l-.55.26-.1-.2,1.33-.62.09.19-.55.26.67,1.41Zm1.79-.92-.41-.37-.59.32.09.54-.22.12-.29-1.87.23-.12,1.41,1.26Zm.9-.54-.5.31L460,97.77l.5-.31a.89.89,0,1,1,.94,1.51"/><path class="cls-1" d="M460.55,97.65l-.27.17L461,99l.27-.17a.67.67,0,0,0-.71-1.14"/></g></g></svg>